<svg width="156" height="50" viewBox="0 0 156 50" fill="none" xmlns="http://www.w3.org/2000/svg">
  <g clip-path="url(#clip0_23_5)">
    <!-- Logo -->
    <rect width="50" height="50" rx="25" fill="url(#paint0_linear_23_5)"/>
    <path d="M23.8845 31.523C24.1249 31.5995 24.3653 31.6531 24.6056 31.6837C24.846 31.6991 25.0864 31.7067 25.3268 31.7067C25.9277 31.7067 26.5061 31.6225 27.062 31.4541C27.6178 31.2856 28.1361 31.0483 28.6169 30.742C29.1127 30.4205 29.5484 30.0377 29.9239 29.5936C30.3146 29.1343 33.803 24.4947 33.3944 25.023L37 20.1537C36.4291 20.9806 34.1455 34.2638 33.3944 34.9223C32.6582 35.5807 31.8545 36.1396 30.9831 36.5989C30.1268 37.0583 29.2178 37.4028 28.2563 37.6325C27.3099 37.8775 26.3333 38 25.3268 38C23.6291 38 22.0291 37.6784 20.5268 37.0353C19.0394 36.3922 17.7324 35.4965 16.6056 34.3481C15.4939 33.1996 14.615 31.8369 13.969 30.2597C13.323 28.6673 13 26.9217 13 25.023C13 23.0783 13.323 21.3021 13.969 19.6943C14.615 18.0866 15.4939 16.7161 16.6056 15.583C17.7324 14.4499 19.0394 13.5695 20.5268 12.9417C22.0291 12.3139 23.6291 12 25.3268 12C26.3333 12 27.3174 12.1225 28.2789 12.3675C29.2404 12.6125 30.1493 12.9647 31.0056 13.424C31.877 13.8834 32.6883 14.4499 33.4394 15.1237C34.1906 15.7821 34.8516 16.5247 35.4225 17.3516L23.8845 31.523ZM27.0394 18.5919C26.754 18.4847 26.4685 18.4158 26.1831 18.3852C25.9127 18.3545 25.6272 18.3392 25.3268 18.3392C24.4854 18.3392 23.6892 18.5 22.938 18.8216C22.2019 19.1278 21.5559 19.5718 21 20.1537C20.4592 20.7356 20.031 21.4399 19.7155 22.2668C19.4 23.0783 19.2423 23.9971 19.2423 25.023C19.2423 25.2526 19.2498 25.513 19.2648 25.8039C19.2948 26.0948 19.3324 26.3934 19.3775 26.6996C19.4376 26.9906 19.5052 27.2739 19.5803 27.5495C19.6554 27.8251 19.7531 28.0701 19.8732 28.2845L27.0394 18.5919Z" fill="white"/>
    <!-- Nom -->
    <text x="60" y="32" fill="#151517" font-family="Arial" font-size="20">EduNR</text>
  </g>
  <defs>
    <linearGradient id="paint0_linear_23_5" x1="41" y1="5.5" x2="9" y2="43.25" gradientUnits="userSpaceOnUse">
      <stop stop-color="#2FB97D"/>
      <stop offset="1" stop-color="#1AB69D"/>
    </linearGradient>
    <clipPath id="clip0_23_5">
      <rect width="156" height="50" fill="white"/>
    </clipPath>
  </defs>
</svg>

